<?xml version="1.0" ?><svg id="Layer_1" style="enable-background:new 0 0 512 512;" version="1.1" viewBox="0 0 512 512" xml:space="preserve" xmlns="http://www.w3.org/2000/svg" xmlns:xlink="http://www.w3.org/1999/xlink"><style type="text/css">
	.st0{fill:#F9AC82;}
	.st1{fill:#F8BC95;}
	.st2{fill:#703E28;}
	.st3{fill:#1A3F6F;}
	.st4{fill:#804830;}
	.st5{fill:#633621;}
</style><g><path class="st0" d="M256,463.7L256,463.7c-9,0-16.2-7.3-16.2-16.2V321.8h32.4v125.7C272.2,456.5,265,463.7,256,463.7z"/><path class="st1" d="M252.6,421.7c-3.3,0-6-2.7-6-6v-79.8c0-3.3,2.7-6,6-6s6,2.7,6,6v79.8C258.6,419.1,256,421.7,252.6,421.7z"/><path class="st1" d="M252.6,451.6c-3.3,0-6-2.7-6-6v-11c0-3.3,2.7-6,6-6s6,2.7,6,6v11C258.6,448.9,256,451.6,252.6,451.6z"/><path class="st2" d="M279.8,355.3h-47.5c-30.3,0-54.9-24.6-54.9-54.9V103.2c0-30.3,24.6-54.9,54.9-54.9h47.5   c30.3,0,54.9,24.6,54.9,54.9v197.3C334.7,330.7,310.1,355.3,279.8,355.3z"/><path class="st3" d="M279.8,42.3h-47.5c-33.6,0-60.9,27.3-60.9,60.9v197.3c0,33.6,27.3,60.9,60.9,60.9h1.6v86.2   c0,12.2,10,22.2,22.2,22.2s22.2-10,22.2-22.2v-86.2h1.6c33.6,0,60.9-27.3,60.9-60.9V103.2C340.7,69.6,313.3,42.3,279.8,42.3z    M266.2,447.5c0,5.6-4.6,10.2-10.2,10.2s-10.2-4.6-10.2-10.2v-86.2h20.4V447.5z M328.7,300.4c0,27-21.9,48.9-48.9,48.9h-47.5   c-27,0-48.9-21.9-48.9-48.9V103.2c0-27,21.9-48.9,48.9-48.9h47.5c27,0,48.9,21.9,48.9,48.9V300.4z"/><path class="st4" d="M196.1,310.8c-3.3,0-6-2.7-6-6V109c0-25.2,20.5-45.7,45.7-45.7c3.3,0,6,2.7,6,6s-2.7,6-6,6   c-18.6,0-33.7,15.1-33.7,33.7v195.8C202.1,308.1,199.4,310.8,196.1,310.8z"/><path class="st5" d="M306.6,111.7c-2.2,0-4.4-1.2-5.4-3.4l-9.3-19.1c-1.5-3-0.2-6.6,2.8-8c3-1.5,6.6-0.2,8,2.8L312,103   c1.5,3,0.2,6.6-2.8,8C308.4,111.5,307.5,111.7,306.6,111.7z"/><path class="st5" d="M206.9,170.7c-2.2,0-4.4-1.2-5.4-3.4l-9.3-19.1c-1.5-3-0.2-6.6,2.8-8c3-1.5,6.6-0.2,8,2.8l9.3,19.1   c1.5,3,0.2,6.6-2.8,8C208.6,170.5,207.7,170.7,206.9,170.7z"/><path class="st5" d="M211.5,117.6c-2.2,0-4.4-1.2-5.4-3.4l-9.3-19.1c-1.5-3-0.2-6.6,2.8-8c3-1.5,6.6-0.2,8,2.8l9.3,19.1   c1.5,3,0.2,6.6-2.8,8C213.3,117.4,212.4,117.6,211.5,117.6z"/><path class="st5" d="M243.8,108c-1.9,0-3.8-0.9-5-2.7c-1.8-2.8-1.1-6.5,1.7-8.3l17.7-11.8c2.8-1.8,6.5-1.1,8.3,1.7   c1.8,2.8,1.1,6.5-1.7,8.3L247.1,107C246.1,107.7,244.9,108,243.8,108z"/><path class="st5" d="M198.2,217.4c-1.9,0-3.8-0.9-5-2.7c-1.8-2.8-1.1-6.5,1.7-8.3l17.7-11.8c2.8-1.8,6.5-1.1,8.3,1.7   c1.8,2.8,1.1,6.5-1.7,8.3l-17.7,11.8C200.5,217,199.4,217.4,198.2,217.4z"/><path class="st5" d="M293.1,172.9c-1.9,0-3.8-0.9-5-2.7c-1.8-2.8-1.1-6.5,1.7-8.3l17.7-11.8c2.8-1.8,6.5-1.1,8.3,1.7   c1.8,2.8,1.1,6.5-1.7,8.3l-17.7,11.8C295.4,172.6,294.3,172.9,293.1,172.9z"/><path class="st5" d="M264.3,154.3c-0.4,0-0.7,0-1.1-0.1l-24.5-4.4c-3.3-0.6-5.4-3.7-4.8-7c0.6-3.3,3.7-5.4,7-4.8l24.5,4.4   c3.3,0.6,5.4,3.7,4.8,7C269.7,152.3,267.2,154.3,264.3,154.3z"/><path class="st5" d="M318.9,215.9c-0.4,0-0.7,0-1.1-0.1l-24.5-4.4c-3.3-0.6-5.4-3.7-4.8-7s3.7-5.4,7-4.8L320,204   c3.3,0.6,5.4,3.7,4.8,7C324.3,213.9,321.8,215.9,318.9,215.9z"/><path class="st5" d="M252.1,211.5c-0.3,0-0.7,0-1.1-0.1c-3.3-0.6-5.4-3.7-4.9-7l3.9-22.3c0.6-3.3,3.7-5.4,7-4.9   c3.3,0.6,5.4,3.7,4.9,7l-3.9,22.3C257.5,209.5,254.9,211.5,252.1,211.5z"/></g></svg>