<?xml version="1.0" ?><svg id="Layer_1" style="enable-background:new 0 0 512 512;" version="1.1" viewBox="0 0 512 512" xml:space="preserve" xmlns="http://www.w3.org/2000/svg" xmlns:xlink="http://www.w3.org/1999/xlink"><style type="text/css">
	.st0{fill:#F9AC82;}
	.st1{fill:#F8BC95;}
	.st2{fill:#FFCB05;}
	.st3{fill:#FFDE2F;}
	.st4{fill:#1A3F6F;}
</style><g><path class="st0" d="M256,463.7L256,463.7c-9,0-16.2-7.3-16.2-16.2V321.8h32.4v125.7C272.2,456.5,265,463.7,256,463.7z"/><path class="st1" d="M252.6,421.7c-3.3,0-6-2.7-6-6v-79.8c0-3.3,2.7-6,6-6s6,2.7,6,6v79.8C258.6,419.1,256,421.7,252.6,421.7z"/><path class="st1" d="M252.6,451.6c-3.3,0-6-2.7-6-6v-11c0-3.3,2.7-6,6-6s6,2.7,6,6v11C258.6,448.9,256,451.6,252.6,451.6z"/><g><path class="st2" d="M279.8,48.3h-19.1c0,0.5,0,1,0,1.5c0,11.4-6.9,21.1-16.7,25.4c2.3,4.1,3.7,8.8,3.7,13.8    c0,15.3-12.4,27.6-27.6,27.6c-4.6,0-8.9-1.1-12.6-3.1c-1.8,13.6-13.3,24-27.4,24c-0.9,0-1.8,0-2.7-0.1v163.1    c0,30.3,24.6,54.9,54.9,54.9h47.5c30.3,0,54.9-24.6,54.9-54.9V103.2C334.7,72.8,310.1,48.3,279.8,48.3z"/></g><path class="st3" d="M196.1,310.8c-3.3,0-6-2.7-6-6V157c0-3.3,2.7-6,6-6s6,2.7,6,6v147.8C202.1,308.1,199.4,310.8,196.1,310.8z"/><path class="st4" d="M279.8,42.3h-18.6c-1.6,0-3.2,0.7-4.4,1.9c-1.1,1.2-1.7,2.8-1.6,4.4c0,0.4,0,0.8,0,1.2c0,8.6-5.1,16.4-13,19.9   c-1.6,0.7-2.8,2-3.3,3.6c-0.5,1.6-0.4,3.4,0.5,4.9c1.9,3.3,2.9,7,2.9,10.8c0,11.9-9.7,21.6-21.6,21.6c-3.5,0-6.8-0.8-9.9-2.4   c-1.7-0.9-3.8-0.9-5.5,0c-1.7,0.9-2.9,2.6-3.2,4.5c-1.4,10.7-10.6,18.8-21.4,18.8c-0.8,0-1.6-0.1-2.5-0.1c-1.7-0.2-3.4,0.3-4.7,1.5   c-1.3,1.1-2,2.8-2,4.5v163.1c0,33.6,27.3,60.9,60.9,60.9h1.6v86.2c0,12.2,10,22.2,22.2,22.2s22.2-10,22.2-22.2v-86.2h1.6   c33.6,0,60.9-27.3,60.9-60.9V103.2C340.7,69.6,313.3,42.3,279.8,42.3z M266.2,447.5c0,5.6-4.6,10.2-10.2,10.2   c-5.6,0-10.2-4.6-10.2-10.2v-86.2h20.4V447.5z M328.7,300.4c0,27-21.9,48.9-48.9,48.9h-47.5c-27,0-48.9-21.9-48.9-48.9v-157   c13.1-1.1,24.3-9.8,28.8-21.9c2.8,0.7,5.6,1.1,8.5,1.1c18.5,0,33.6-15.1,33.6-33.6c0-3.8-0.7-7.6-1.9-11.2   c8-5.3,13.3-13.9,14.6-23.4h12.9c27,0,48.9,21.9,48.9,48.9V300.4z"/><g><path class="st3" d="M314.6,111.4c-3.3,0-6-2.7-6-6c0-17.7-14.4-32.2-32.2-32.2c-3.3,0-6-2.7-6-6s2.7-6,6-6    c24.4,0,44.2,19.8,44.2,44.2C320.6,108.8,317.9,111.4,314.6,111.4z"/></g></g></svg>